PathFileType	4	(X/Y/Z)	C:/Users/opensim2020/Desktop/walking_exp_matlab/subject02_walking10_straight_02.trc																																																																																																																															
DataRate	CameraRate	NumFrames	NumMarkers	Units	OrigDataRate	OrigDataStartFrame	OrigNumFrames																																																																																																																											
100	100	6	43	mm	100	1435	280																																																																																																																											
Frame#	Time	LFHD			RFHD			LBHD			RBHD			C7			T10			CLAV			STRN			RBAK			LSHO			LUPA			LELB			LFRM			LWRA			LWRB			LFIN			RSHO			RUPA			RELB			RFRM			RWRA			RWRB			RFIN			LASI			RASI			LPSI			RPSI			LTHI			LKNE			LTIB			LANK			LHEE			LTOE			RTHI			RKNE			RTIB			RANK			RHEE			RTOE			*39			*40			*41			*42		
		X1	Y1	Z1	X2	Y2	Z2	X3	Y3	Z3	X4	Y4	Z4	X5	Y5	Z5	X6	Y6	Z6	X7	Y7	Z7	X8	Y8	Z8	X9	Y9	Z9	X10	Y10	Z10	X11	Y11	Z11	X12	Y12	Z12	X13	Y13	Z13	X14	Y14	Z14	X15	Y15	Z15	X16	Y16	Z16	X17	Y17	Z17	X18	Y18	Z18	X19	Y19	Z19	X20	Y20	Z20	X21	Y21	Z21	X22	Y22	Z22	X23	Y23	Z23	X24	Y24	Z24	X25	Y25	Z25	X26	Y26	Z26	X27	Y27	Z27	X28	Y28	Z28	X29	Y29	Z29	X30	Y30	Z30	X31	Y31	Z31	X32	Y32	Z32	X33	Y33	Z33	X34	Y34	Z34	X35	Y35	Z35	X36	Y36	Z36	X37	Y37	Z37	X38	Y38	Z38	X39	Y39	Z39	X40	Y40	Z40	X41	Y41	Z41	X42	Y42	Z42	X43	Y43	Z43
																																																																																																																																		
36	0.35	-835.11847	1743.18835	978.43738	-831.75372	1724.50366	1123.26367	-950.93872	1646.71716	971.57245	-959.41278	1624.53101	1113.1886	-992.72937	1515.18066	1046.33813	-1049.61157	1242.09326	1052.948	-851.09717	1449.01282	1036.11389	-800.90955	1276.4574	1056.58752	-1050.28235	1347.70068	1118.45544	-919.94623	1484.33252	865.40302	-953.18866	1283.90161	789.2099	-971.21936	1142.68909	783.82056	-964.59375	1009.13354	780.64337	-910.27008	885.99084	821.20551	-956.0412	886.53137	787.85474	-936.76105	822.30774	789.32349	-906.70026	1491.40735	1232.10962	-905.26215	1302.36108	1327.15735	-864.18201	1160.60889	1350.02161	-803.724	1055.59875	1363.14258	-725.63605	947.76422	1336.34436	-765.22681	931.40167	1373.63306	-710.54663	883.74475	1371.82715	-798.34802	982.64923	939.52026	-833.92548	964.40143	1197.06079	-1018.50305	1021.33984	994.38397	-1038.16772	1023.91193	1106.61169	-794.84198	679.11206	866.92761	-766.16498	480.20157	905.38165	-769.62347	285.85022	906.87213	-702.74561	72.1864	935.48322	-728.3114	39.94932	989.42554	-545.41772	61.47136	925.53699	-981.49554	670.50867	1239.67786	-1029.60974	465.22769	1199.8894	-1131.41113	304.7522	1189.45117	-1203.50549	125.37771	1145.13745	-1239.90588	79.15765	1082.46191	-1071.44702	41.50875	1184.23718	-946.44122	1789.66931	1070.23254	-2845.11719	1034.1665	3360.27539	NaN	NaN	NaN	NaN	NaN	NaN
37	0.36	-827.45654	1742.43481	977.13269	-824.33221	1723.79651	1121.49097	-943.5285	1645.79077	969.97784	-951.7854	1623.64795	1111.59839	-985.02411	1513.99304	1044.47461	-1040.65186	1240.54602	1050.35168	-843.07397	1448.39783	1034.42529	-792.11938	1276.1532	1054.88281	-1042.07593	1346.16077	1116.11438	-911.94171	1483.75769	863.60095	-944.68878	1283.20386	787.3736	-962.81445	1142.02649	781.43781	-956.13635	1008.54437	778.40509	-901.94592	885.39313	818.41034	-947.72162	885.96088	785.20868	-928.44879	821.79041	786.30713	-899.24902	1490.06897	1229.73596	-898.39532	1301.53589	1325.33777	-858.49561	1159.53442	1348.33337	-798.63342	1054.1897	1361.75256	-721.07477	945.76617	1334.5376	-760.58246	929.75452	1372.0625	-706.23535	881.4809	1369.96924	-787.17041	982.6651	938.07147	-824.25745	964.10516	1195.52515	-1008.07422	1020.18396	991.32831	-1028.40283	1022.59332	1103.43774	-786.19623	677.6734	865.98846	-760.36041	478.37656	903.89111	-765.62207	283.83167	907.39459	-700.2547	71.18653	935.745	-725.88153	41.62148	989.95404	-542.02118	53.41654	924.61237	-973.28851	670.48297	1238.71729	-1022.19293	465.43002	1199.97156	-1126.75513	306.68588	1189.4895	-1201.75452	128.4364	1145.66968	-1238.63159	82.95551	1082.80518	-1071.23193	41.52903	1184.61768	-939.05695	1788.81396	1068.698	-2845.17358	1034.16553	3360.38354	NaN	NaN	NaN	NaN	NaN	NaN
38	0.37	-820.32013	1742.06787	975.3717	-816.72601	1723.35376	1120.0625	-935.80591	1645.22339	968.28064	-944.09113	1622.97974	1109.89429	-977.51917	1512.94861	1042.4126	-1031.72839	1239.51453	1047.40234	-834.97955	1447.9729	1032.53564	-783.4906	1275.87292	1053.07056	-1033.90332	1344.84399	1113.34436	-903.84418	1483.16455	861.70996	-936.29114	1282.5343	785.01843	-953.68317	1141.53174	779.40192	-947.40924	1007.98944	775.73383	-893.30658	884.20441	815.91296	-939.18799	885.34943	782.45721	-919.86969	820.96881	783.40009	-892.24316	1489.02222	1227.70862	-891.75421	1300.78003	1323.9248	-852.94263	1158.12976	1346.2168	-793.61401	1052.73193	1360.25024	-716.50543	943.74664	1332.83997	-756.06293	928.06055	1370.46899	-702.17889	879.32025	1367.9823	-777.02673	982.3252	936.98315	-814.38861	963.78363	1193.84912	-997.46588	1019.06232	988.06055	-1018.52356	1021.10022	1100.09131	-777.95972	677.02368	864.60791	-754.86316	477.47342	901.81964	-760.2608	282.56982	908.47473	-695.04639	71.50835	934.25934	-722.38635	43.37855	987.93945	-536.45813	48.76081	923.73889	-964.82361	670.5542	1237.72974	-1014.4411	465.79941	1200.22424	-1121.75708	308.84839	1189.60583	-1199.7583	131.87512	1146.47034	-1236.97498	87.21774	1083.58374	-1070.96179	41.68934	1185.00073	-931.62823	1788.20776	1067.12585	-2845.9248	1034.19666	3357.45801	NaN	NaN	NaN	NaN	NaN	NaN
39	0.38	-812.51587	1742.38086	973.69995	-809.21655	1723.30859	1118.49023	-928.08716	1645.10205	966.54205	-936.40143	1622.72913	1108.12549	-969.92932	1512.29102	1040.16492	-1022.64545	1238.87195	1044.5249	-826.94635	1447.76379	1030.59692	-774.95929	1276.1499	1051.198	-1025.72876	1343.74023	1110.34009	-895.6958	1482.61804	859.53564	-927.37646	1281.72632	782.79083	-944.6571	1140.75488	777.01349	-938.48688	1007.30493	773.1344	-884.78961	883.66937	812.97028	-930.14838	884.49634	779.52441	-911.09979	820.59973	780.26044	-885.36218	1488.16138	1225.91785	-885.27557	1299.81323	1322.22681	-847.4295	1156.87939	1344.25977	-788.6098	1050.92151	1357.85522	-712.27917	941.62543	1330.90906	-751.70416	926.35004	1368.85596	-698.2124	877.1391	1366.36377	-766.47363	982.36853	935.43646	-804.27863	963.31927	1191.9126	-986.97943	1018.33832	984.68347	-1008.65399	1019.59961	1096.7522	-769.74115	677.53851	862.85797	-748.3186	477.71515	899.47705	-753.22955	283.1608	908.74438	-689.66144	71.17919	932.64264	-719.12299	44.30119	986.81293	-532.04236	46.1204	921.53174	-955.90497	670.6499	1236.55688	-1006.19977	466.3085	1200.48755	-1116.32495	311.31464	1189.94934	-1197.39722	135.71362	1147.38037	-1235.13147	92.14975	1084.51611	-1070.79272	41.40909	1185.20007	-924.13861	1788.04272	1065.49902	-2845.80176	1034.19434	3357.44067	NaN	NaN	NaN	NaN	NaN	NaN
40	0.39	-804.58179	1742.31116	973.27325	-801.57245	1723.61462	1116.60413	-920.38013	1645.43701	964.6911	-928.77612	1622.86975	1106.25671	-962.0061	1512.16162	1037.8147	-1013.66064	1238.51965	1041.98328	-818.91107	1447.78564	1028.68127	-766.46881	1276.51807	1049.11511	-1017.61127	1342.93127	1107.24939	-887.55719	1482.29236	857.32147	-918.72742	1281.32605	780.35846	-935.26526	1140.15344	774.64154	-929.37018	1006.76984	770.5061	-875.79163	883.00049	810.14667	-921.448	884.09979	776.66571	-902.79352	820.02527	777.10278	-878.56628	1487.62756	1224.36121	-879.047	1298.68787	1319.97437	-841.96051	1155.85205	1342.35229	-783.77917	1049.40247	1356.01917	-708.23358	939.47583	1329.08313	-747.64178	924.70953	1367.16003	-694.44257	874.93329	1364.43237	-755.9679	982.44678	933.77173	-794.3783	962.90991	1189.99402	-976.72546	1018.36316	981.51575	-998.81189	1018.20465	1093.52722	-761.86395	678.76202	860.77374	-740.04865	479.11935	897.46454	-746.10522	284.49667	904.56915	-688.61719	71.01555	932.75116	-718.8631	44.55551	986.72314	-531.39557	43.3883	921.18774	-946.64819	670.97571	1235.34473	-997.26318	467.00357	1200.90479	-1110.37683	314.17792	1189.9801	-1194.81604	140.02077	1148.45471	-1232.91638	97.51179	1085.50818	-1070.42725	41.47433	1185.60156	-916.67535	1788.26367	1063.85303	-2845.79565	1034.15759	3357.38818	NaN	NaN	NaN	NaN	NaN	NaN
41	0.4	-797.41669	1743.24377	970.61108	-794.09949	1723.99756	1115.02124	-912.67706	1646.14673	962.76581	-921.14221	1623.25476	1104.32092	-953.94745	1512.50293	1035.56787	-1004.7027	1238.49951	1039.71313	-811.14496	1448.32068	1026.70288	-757.99908	1277.19238	1047.06689	-1009.65887	1342.51501	1104.3302	-879.31464	1482.26147	854.98145	-909.71851	1281.09033	777.87811	-926.05591	1139.98572	772.28284	-920.01099	1006.48401	767.85645	-866.93994	882.54059	807.2663	-912.34082	883.72632	773.74585	-893.72375	819.76532	774.03375	-871.58093	1487.20386	1222.71631	-873.04315	1297.70679	1317.76257	-836.52295	1154.84375	1340.03796	-779.16064	1048.14258	1354.12329	-704.34705	937.59027	1327.32056	-743.90564	923.23193	1365.39795	-691.23047	873.20801	1362.82605	-745.56348	982.95367	931.79437	-784.10242	962.56958	1187.60303	-966.72205	1019.39764	978.57849	-988.82019	1017.25031	1090.69006	-753.64557	680.62726	859.35217	-730.125	481.07083	896.07532	-738.86023	285.81509	898.50787	-689.03027	71.68699	933.40094	-718.77563	44.77442	986.44891	-530.95245	41.98268	923.86139	-936.98639	671.39948	1234.01245	-987.74268	467.89816	1201.50098	-1103.62842	317.19104	1190.47083	-1191.46167	144.70038	1149.63733	-1230.28467	103.4606	1086.70569	-1070.00989	41.59918	1186.03979	-909.10126	1788.7428	1062.0686	-2845.27148	1034.0835	3360.47729	NaN	NaN	NaN	NaN	NaN	NaN
